<svg width="100%" height="100%" viewBox="0 0 418 593" version="1.1" xmlns="http://www.w3.org/2000/svg" xmlns:xlink="http://www.w3.org/1999/xlink" xml:space="preserve" xmlns:serif="http://www.serif.com/" style="fill-rule: evenodd; clip-rule: evenodd; stroke-linejoin: round; stroke-miterlimit: 2">
    <g transform="matrix(1,0,0,1,-209,0)">
        <path id="b-459" d="M514.509,140.519L514.509,51.514C514.509,23.063 491.446,0 462.996,0L274.422,0C245.971,-0 222.908,23.063 222.907,51.513L222.907,539.804C222.907,568.254 245.971,591.317 274.421,591.317L462.993,591.317C491.443,591.317 514.507,568.254 514.507,539.804L514.507,203.875L514.507,203.875C516.299,203.875 517.752,202.422 517.752,200.63L517.754,143.764C517.754,141.972 516.301,140.519 514.509,140.519L514.509,140.519L514.509,140.519Z" style="fill: #3f3d56; fill-rule: nonzero"></path>
        <path id="c-460" d="M504.836,47.23L504.836,542.42C474.73,540.57 490.043,580.237 465.78,581.484L273.337,581.484C251.758,581.487 234.261,563.998 234.255,542.42L234.255,47.23C234.261,25.652 251.757,8.164 273.335,8.167L287.527,8.167C283.662,17.671 314.855,20.764 317.246,20.767L415.805,20.767C426.065,20.754 450.819,10.382 449.918,8.167L465.772,8.167C487.342,8.171 504.828,25.653 504.836,47.223L504.836,47.23L504.836,47.23Z" style="fill: #fff; fill-rule: nonzero"></path>
        <g>
            <path d="M221.39,151.421C220.018,151.421 218.902,152.537 218.902,153.91L218.902,173.817C218.902,175.19 220.018,176.306 221.39,176.306C222.763,176.306 223.879,175.19 223.879,173.817L223.879,153.91C223.879,152.537 222.763,151.421 221.39,151.421Z" style="fill: #3f3d56; fill-rule: nonzero"></path>
            <path d="M221.39,211.144C220.018,211.144 218.902,212.26 218.902,213.632L218.902,252.203C218.902,253.575 220.018,254.691 221.39,254.691C222.763,254.691 223.879,253.575 223.879,252.203L223.879,213.632C223.879,212.26 222.763,211.144 221.39,211.144Z" style="fill: #3f3d56; fill-rule: nonzero"></path>
            <path d="M221.39,265.889C220.018,265.889 218.902,267.005 218.902,268.378L218.902,306.948C218.902,308.321 220.018,309.437 221.39,309.437C222.763,309.437 223.879,308.321 223.879,306.948L223.879,268.378C223.879,267.005 222.763,265.889 221.39,265.889Z" style="fill: #3f3d56; fill-rule: nonzero"></path>
        </g>
    </g>
    <g transform="matrix(1,0,0,1,-209,0)">
        <g transform="matrix(1,0,0,1,-191,2)">
            <path d="M808.331,559.842L796.522,567.931L759.701,526.233L777.13,514.295L808.331,559.842Z" style="fill: #ffb6b6; fill-rule: nonzero"></path>
        </g>
        <g transform="matrix(1,0,0,1,-191,2)">
            <path d="M767.691,587.29C767.748,588.161 768.923,590.293 769.417,591.013C770.933,593.226 773.956,593.791 776.17,592.275L812.738,567.222C814.248,566.188 814.633,564.125 813.599,562.615L812.556,561.093C812.556,561.093 811.23,555.278 803.642,552.189C803.642,552.189 802.038,559.777 790.383,557.599L785.812,555.301L778.445,576.214L770.951,582.828C769.312,584.275 767.55,585.108 767.692,587.29L767.691,587.29L767.691,587.29Z" style="fill: #2f2e41; fill-rule: nonzero"></path>
        </g>
    </g>
    <g transform="matrix(1,0,0,1,-209,0)">
        <g transform="matrix(1,0,0,1,-191,2)">
            <path d="M721.269,581.316L706.956,581.314L700.147,526.105L717.667,528.287L721.269,581.316Z" style="fill: #ffb6b6; fill-rule: nonzero"></path>
        </g>
        <g transform="matrix(1,0,0,1,-191,2)">
            <path d="M672.23,580.991C671.784,581.742 671.549,584.164 671.549,585.037C671.549,587.72 673.724,589.895 676.407,589.895L720.733,589.895C722.564,589.895 724.048,588.411 724.048,586.581L724.048,584.735C724.048,584.735 726.24,579.189 721.726,572.352C721.726,572.352 716.115,577.705 707.73,569.321L705.258,564.842L687.361,577.931L677.441,579.152C675.27,579.419 673.346,579.111 672.23,580.991L672.23,580.991L672.23,580.991Z" style="fill: #2f2e41; fill-rule: nonzero"></path>
        </g>
    </g>
    <g id="d-461" transform="matrix(1,0,0,1,-400,2)">
        <path d="M671.085,371.505L672.162,384.524L670.019,394.877L673.922,405.792L678.696,463.502L703.58,563L722.58,567L713.459,467.613L720.534,385.635L671.085,371.505L671.085,371.505Z" style="fill: #2f2e41; fill-rule: nonzero"></path>
    </g>
    <g id="e-462" transform="matrix(1,0,0,1,-400,2)">
        <path d="M751.825,314.985L679.159,315.994L671.085,371.502L720.534,394.715L718.956,473.991L774.028,553.71L803.359,536.953L754.21,469.252L767.973,356.363L751.825,314.985L751.825,314.985L751.825,314.985Z" style="fill: #2f2e41; fill-rule: nonzero"></path>
    </g>
    <g id="f-463" transform="matrix(1,0,0,1,-400,2)">
        <path d="M698.034,184.487L685.214,200.94L691.27,327.095L738.704,326.086L746.778,216.079L736.686,187.82L733.034,181.487L728.667,173.287L700.667,175.287L698.034,184.487L698.034,184.487L698.034,184.487Z" style="fill: #e6e6e6; fill-rule: nonzero"></path>
    </g>
    <g id="g-464" transform="matrix(1,0,0,1,-400,2)">
        <path d="M679.103,262.504L681.667,288.287L678.517,317.956L674.58,326L665.58,358C665.58,358 656.395,371.994 676.58,373C696.765,374.006 762.926,367.459 762.926,367.459C762.926,367.459 771.175,367.255 767.58,350C761.773,340.02 765.517,325.956 765.517,325.956L757.88,297.821L759.898,271.581L774.028,202.952C761.479,193.09 747.424,186.032 732.144,181.252L718.761,216.442L698.836,184.28L691.267,189.831C681.058,192.508 672.073,196.625 664.967,202.951L679.103,262.504Z" style="fill: #2f2e41; fill-rule: nonzero"></path>
    </g>
    <g id="h-465" transform="matrix(1,0,0,1,-206,308)">
        <path d="M439.546,201.291L297.111,201.291C287.348,201.28 279.436,193.368 279.425,183.605L279.425,122.38C279.436,112.617 287.348,104.705 297.111,104.694C342.561,92.102 390.229,93.282 439.546,104.694C449.309,104.705 457.22,112.617 457.231,122.38L457.231,183.605C457.22,193.368 449.309,201.279 439.546,201.291Z" style="fill: #f2f2f2; fill-rule: nonzero"></path>
    </g>
    <g id="i" transform="matrix(1,0,0,1,-209,-32.533)">
        <g id="j-466" transform="matrix(1,0,0,1,2,-146)">
            <path d="M454.057,297.99L282.601,297.99C280.848,297.988 279.428,296.568 279.426,294.815L279.426,252.285C279.428,250.532 280.848,249.112 282.601,249.11L454.057,249.11C455.81,249.112 457.23,250.532 457.232,252.285L457.232,294.816C457.23,296.568 455.81,297.989 454.057,297.991L454.057,297.99ZM282.601,250.38C281.549,250.381 280.697,251.233 280.696,252.285L280.696,294.816C280.697,295.867 281.549,296.72 282.601,296.721L454.057,296.721C455.109,296.72 455.961,295.867 455.962,294.816L455.962,252.285C455.961,251.233 455.109,250.381 454.057,250.38L282.601,250.38Z" style="fill: #e6e6e6; fill-rule: nonzero"></path>
        </g>
        <g id="k-467" transform="matrix(1,0,0,1,2,-146)">
            <path d="M335.625,264.656C334.397,264.682 333.423,265.698 333.449,266.925C333.475,268.116 334.434,269.076 335.625,269.101L440.403,269.101C441.63,269.148 442.663,268.191 442.71,266.964C442.756,265.737 441.8,264.705 440.573,264.658L335.625,264.658L335.625,264.656Z" style="fill: #e6e6e6; fill-rule: nonzero"></path>
        </g>
        <g id="l-468" transform="matrix(1,0,0,1,2,-146)">
            <path d="M335.625,277.995C334.397,278.021 333.423,279.037 333.449,280.264C333.475,281.455 334.434,282.415 335.625,282.44L440.403,282.44C441.63,282.487 442.663,281.53 442.71,280.303C442.756,279.076 441.8,278.044 440.573,277.997L335.625,277.997L335.625,277.995Z" style="fill: #e6e6e6; fill-rule: nonzero"></path>
        </g>
        <g id="m" transform="matrix(1,0,0,1,2,-146)">
            <circle cx="306.192" cy="273.551" r="8.891" style="fill: #e6e6e6"></circle>
        </g>
    </g>
    <g id="n" transform="matrix(1,0,0,1,-209,0.223)">
        <g id="o-469" transform="matrix(1,0,0,1,3,-233)">
            <path d="M454.057,473.99L282.601,473.99C280.848,473.988 279.428,472.568 279.426,470.815L279.426,428.285C279.428,426.532 280.848,425.112 282.601,425.11L454.057,425.11C455.81,425.112 457.23,426.532 457.232,428.285L457.232,470.816C457.23,472.568 455.81,473.989 454.057,473.991L454.057,473.99ZM282.601,426.38C281.549,426.381 280.697,427.233 280.696,428.285L280.696,470.816C280.697,471.868 281.549,472.72 282.601,472.721L434.58,471.223C435.632,471.222 451.579,465.275 451.58,464.223L455.962,428.285C455.961,427.233 455.109,426.381 454.057,426.38L282.601,426.38L282.601,426.38Z" style="fill: #e6e6e6; fill-rule: nonzero"></path>
        </g>
        <g id="p-470" transform="matrix(1,0,0,1,3,-233)">
            <path d="M335.625,446.996C334.397,446.97 333.381,447.944 333.356,449.171C333.33,450.399 334.304,451.415 335.531,451.441C335.562,451.441 335.594,451.441 335.625,451.441L440.403,451.441C441.63,451.488 442.663,450.531 442.71,449.304C442.756,448.077 441.8,447.045 440.573,446.998L335.625,446.998L335.625,446.996Z" style="fill: #e6e6e6; fill-rule: nonzero"></path>
        </g>
        <g id="q" transform="matrix(1,0,0,1,3,-233)">
            <circle cx="306.192" cy="449.551" r="8.891" style="fill: #e6e6e6"></circle>
        </g>
    </g>
    <g id="r" transform="matrix(1,0,0,1,-209,0.223)">
        <g id="s-471" transform="matrix(1,0,0,1,3,-204)">
            <path d="M454.057,385.99L282.601,385.99C280.848,385.988 279.428,384.568 279.426,382.815L279.426,340.285C279.428,338.532 280.848,337.112 282.601,337.11L454.057,337.11C455.81,337.112 457.23,338.532 457.232,340.285L457.232,382.816C457.23,384.568 455.81,385.989 454.057,385.991L454.057,385.99ZM282.601,338.38C281.549,338.381 280.697,339.233 280.696,340.285L280.696,382.816C280.697,383.868 281.549,384.72 282.601,384.721L434.58,383.223C435.632,383.222 451.579,377.275 451.58,376.223L455.962,340.285C455.961,339.233 455.109,338.381 454.057,338.38L282.601,338.38L282.601,338.38Z" style="fill: #e6e6e6; fill-rule: nonzero"></path>
        </g>
        <g id="t-472" transform="matrix(1,0,0,1,3,-204)">
            <path d="M335.625,358.996C334.397,358.97 333.381,359.944 333.356,361.171C333.33,362.399 334.304,363.415 335.531,363.441C335.562,363.441 335.594,363.441 335.625,363.441L440.403,363.441C441.63,363.488 442.663,362.531 442.71,361.304C442.756,360.077 441.8,359.045 440.573,358.998L335.625,358.998L335.625,358.996Z" style="fill: #e6e6e6; fill-rule: nonzero"></path>
        </g>
        <g id="u" transform="matrix(1,0,0,1,3,-204)">
            <circle cx="306.192" cy="361.551" r="8.891" style="fill: #e6e6e6"></circle>
        </g>
    </g>
    <g transform="matrix(1,0,0,1,-209,0)">
        <g transform="matrix(1,0,0,1,-191,2)">
            <circle cx="712.17" cy="147.071" r="25.049" style="fill: #ffb6b6"></circle>
        </g>
        <g transform="matrix(1,0,0,1,-191,2)">
            <path d="M730.567,167.652C731.947,167.888 733.567,164.543 735.115,161.286C738.355,154.467 740.415,150.133 740.571,144.006C740.705,138.784 739.254,140.154 737.843,128.545C737.378,124.715 730.836,124.723 729.504,122.904C727.255,119.833 730.706,118.566 725.11,116.721C714.629,113.265 709.89,118.634 703.233,119.097C703.065,119.108 699.765,122.335 697.923,122.502C694.694,122.794 690.036,122.291 687.948,117.372C685.995,112.772 684.702,126.214 686.447,127.877C687.929,129.289 690.485,132.834 690.55,133.092C690.624,133.384 684.472,126.57 683.446,129.378C682.706,131.399 685.033,141.796 686.912,142.187C688.483,142.514 692.326,137.334 691.459,139.458C689.448,144.385 701.54,147.528 716.015,137.639C716.529,137.289 716.044,137.848 717.834,142.187C720.093,147.659 720.602,147.956 720.563,149.463C720.477,152.725 718.028,153.686 718.744,155.829C719.324,157.565 721.59,158.909 723.291,158.558C725.211,158.161 725.54,155.787 726.929,155.829C728.119,155.865 729.532,157.658 729.658,159.467C729.923,163.279 724.28,164.327 723.291,169.471C722.733,172.375 729.299,167.436 730.567,167.652L730.567,167.652Z" style="fill: #2f2e41; fill-rule: nonzero"></path>
        </g>
    </g>
    <g transform="matrix(1,0,0,1,-209,0)">
        <g id="v-473" transform="matrix(1,0,0,1,-191,2)">
            <path d="M787.255,367.879C787.363,365.074 786.798,362.284 785.608,359.742L788.187,330.509L774.237,329.689L773.123,359.436C771.807,361.916 771.103,364.674 771.072,367.482C770.897,374.504 774.378,380.286 778.845,380.398C783.312,380.509 787.077,374.907 787.252,367.886L787.255,367.879L787.255,367.879Z" style="fill: #ffb6b6; fill-rule: nonzero"></path>
        </g>
        <g id="w-474" transform="matrix(1,0,0,1,-191,2)">
            <path d="M757.58,250L768.58,284L771.738,353.441L790.151,353.065L791.58,277C791.58,277 782.403,220.795 779.33,208.162C776.257,195.529 747.924,200.21 747.924,200.21L757.58,250L757.58,250L757.58,250Z" style="fill: #2f2e41; fill-rule: nonzero"></path>
        </g>
    </g>
    <g transform="matrix(1,0,0,1,-206,308)">
        <path d="M301.32,161.356C306.522,163.083 311.976,164.832 317.529,164.537C320.056,164.403 322.487,163.8 324.779,162.728C327.13,161.629 329.278,160.136 331.658,159.094C340.403,155.267 349.076,161.806 357.232,164.26C361.302,165.484 365.581,165.777 369.562,164.072C373.959,162.188 377.276,158.592 380.897,155.589C389.016,148.858 399.608,145.229 410.145,145.503C421.704,145.804 432.892,150.91 440.852,159.261C441.519,159.961 442.579,158.899 441.912,158.2C434.956,150.902 425.583,145.981 415.601,144.49C405.598,142.996 395.214,144.993 386.418,149.974C381.968,152.495 378.398,155.945 374.477,159.166C370.659,162.301 366.414,164.322 361.38,163.656C352.708,162.508 345.249,155.825 336.255,156.431C330.51,156.818 326.408,161.14 321.003,162.518C314.554,164.161 307.814,161.934 301.719,159.91C300.801,159.605 300.407,161.053 301.32,161.356L301.32,161.356L301.32,161.356Z" style="fill: #3f3d56; fill-rule: nonzero"></path>
    </g>
    <g id="x" transform="matrix(1,0,0,1,-206,308)">
        <circle cx="317.602" cy="163.793" r="5.556" style="fill: #6c63ff"></circle>
    </g>
    <g id="y" transform="matrix(1,0,0,1,-206,308)">
        <circle cx="365.566" cy="164.039" r="5.556" style="fill: #6c63ff"></circle>
    </g>
    <g id="a-" serif:id="a`" transform="matrix(1,0,0,1,-206,308)">
        <circle cx="414.276" cy="145.192" r="5.556" style="fill: #6c63ff"></circle>
    </g>
    <g id="ag" transform="matrix(1,0,0,1,-209,0)">
        <rect x="0" y="590.23" width="851.034" height="1.683" style="fill: #e6e6e6"></rect>
    </g>
    <g transform="matrix(1,0,0,1,-209,0)">
        <g id="ah-481" transform="matrix(1,0,0,1,-191,2)">
            <path d="M664.204,365.547C664.927,372.533 669.118,377.824 673.563,377.363C678.008,376.903 681.026,370.866 680.303,363.879C680.052,361.083 679.136,358.388 677.63,356.019L674.194,326.449L660.351,328.357L665.207,357.299C664.219,359.926 663.873,362.752 664.201,365.54L664.204,365.547L664.204,365.547Z" style="fill: #ffb6b6; fill-rule: nonzero"></path>
        </g>
        <g id="ai-482" transform="matrix(1,0,0,1,-191,2)">
            <path d="M684.574,245.703L690.31,195.311C690.31,195.311 661.697,192.857 659.621,205.692C657.544,218.526 652.788,275.277 652.788,275.277L660.155,350.997L678.542,349.933L676.264,280.458L684.574,245.703L684.574,245.703L684.574,245.703Z" style="fill: #2f2e41; fill-rule: nonzero"></path>
        </g>
    </g>
</svg>